{"title":"Maze Runner: The Scorch Trials (2015) CAMRip *Proper* [Eng+ Ru] ","uid":12480098,"size":2169022464,"categoryP":"video","categoryS":"movies","magnet":"?xt=urn:btih:fc3f64e0810fc638fcf0d8468938313cb07807b2&amp;dn=Maze+Runner%3A+The+Scorch+Trials+%282015%29+CAMRip+%2AProper%2A+%5BEng%2B+Ru%5D+&amp;tr=udp%3A%2F%2Ftracker.openbittorrent.com%3A80&amp;tr=udp%3A%2F%2Fopen.demonii.com%3A1337&amp;tr=udp%3A%2F%2Ftracker.coppersurfer.tk%3A6969&amp;tr=udp%3A%2F%2Fexodus.desync.com%3A6969","seeders":3,"leechers":0,"uploader":"nbdjod","files":1,"time":1443038317,"description":"Maze Runner: The Scorch Trials (2015) CAMRip *Proper* [Eng+ Ru] \n\nAudio 1 - Russian!!!\nAudio 2 - English\n\nMI:\nGeneral\nFormat                                   : AVI\nFormat/Info                              : Audio Video Interleave\nFormat profile                           : OpenDML\nFile size                                : 2.02 GiB\nDuration                                 : 2h 3mn\nOverall bit rate                         : 2 335 Kbps\nWriting application                      : VirtualDubMod 1.5.10.2 (build 2540/release)\nWriting library                          : VirtualDubMod build 2540/release\n\nVideo\nID                                       : 0\nFormat                                   : MPEG-4 Visual\nFormat profile                           : Advanced Simple@L5\nFormat settings, BVOP                    : 2\nFormat settings, QPel                    : Yes\nFormat settings, GMC                     : No warppoints\nFormat settings, Matrix                  : Default (H.263)\nMuxing mode                              : Packed bitstream\nCodec ID                                 : XVID\nCodec ID/Hint                            : XviD\nDuration                                 : 2h 3mn\nBit rate                                 : 1 800 Kbps\nWidth                                    : 720 pixels\nHeight                                   : 400 pixels\nDisplay aspect ratio                     : 16:9\nFrame rate                               : 29.970 fps\nColor space                              : YUV\nChroma subsampling                       : 4:2:0\nBit depth                                : 8 bits\nScan type                                : Progressive\nCompression mode                         : Lossy\nBits/(Pixel*Frame)                       : 0.209\nStream size                              : 1.56 GiB (77%)\nWriting library                          : XviD 1.2.1 (UTC 2008-12-04)\n\nAudio #1\nID                                       : 1\nFormat                                   : AC-3\nFormat/Info                              : Audio Coding 3\nMode extension                           : CM (complete main)\nFormat settings, Endianness              : Big\nCodec ID                                 : 2000\nDuration                                 : 2h 3mn\nBit rate mode                            : Constant\nBit rate                                 : 256 Kbps\nChannel(s)                               : 2 channels\nChannel positions                        : Front: L R\nSampling rate                            : 48.0 KHz\nCompression mode                         : Lossy\nStream size                              : 227 MiB (11%)\nAlignment                                : Split accross interleaves\nInterleave, duration                     : 33 ms (1.00 video frame)\nInterleave, preload duration             : 500 ms\n\nAudio #2\nID                                       : 2\nFormat                                   : AC-3\nFormat/Info                              : Audio Coding 3\nMode extension                           : CM (complete main)\nFormat settings, Endianness              : Big\nCodec ID                                 : 2000\nDuration                                 : 2h 3mn\nBit rate mode                            : Constant\nBit rate                                 : 256 Kbps\nChannel(s)                               : 2 channels\nChannel positions                        : Front: L R\nSampling rate                            : 48.0 KHz\nCompression mode                         : Lossy\nStream size                              : 227 MiB (11%)\nAlignment                                : Split accross interleaves\nInterleave, duration                     : 33 ms (1.00 video frame)\nInterleave, preload duration             : 500 ms\n\n\nScreens: &lt;a href=&quot;\nhttp://i2.imageban.ru/out/2015/09/23/3c134411696a93d1aa15a8335cd0831c.png&quot; rel=&quot;nofollow&quot; target=&quot;_NEW&quot;&gt;\nhttp://i2.imageban.ru/out/2015/09/23/3c134411696a93d1aa15a8335cd0831c.png&lt;/a&gt; &lt;a href=&quot;\nhttp://i6.imageban.ru/out/2015/09/23/1f7415a53ebb3ba06641f8d2c2e09e5b.png&quot; rel=&quot;nofollow&quot; target=&quot;_NEW&quot;&gt;\nhttp://i6.imageban.ru/out/2015/09/23/1f7415a53ebb3ba06641f8d2c2e09e5b.png&lt;/a&gt; &lt;a href=&quot;\nhttp://i4.imageban.ru/out/2015/09/23/566e093a5e08b31e0a8d2519dbc89bfe.png&quot; rel=&quot;nofollow&quot; target=&quot;_NEW&quot;&gt;\nhttp://i4.imageban.ru/out/2015/09/23/566e093a5e08b31e0a8d2519dbc89bfe.png&lt;/a&gt; &lt;a href=&quot;\nhttp://i4.imageban.ru/out/2015/09/23/3279f864bc29e94a3338b2784d3cc6d4.png&quot; rel=&quot;nofollow&quot; target=&quot;_NEW&quot;&gt;\nhttp://i4.imageban.ru/out/2015/09/23/3279f864bc29e94a3338b2784d3cc6d4.png&lt;/a&gt;\n\nSample: &lt;a href=&quot;\nhttp://sendfile.su/1157321&quot; rel=&quot;nofollow&quot; target=&quot;_NEW&quot;&gt;\nhttp://sendfile.su/1157321&lt;/a&gt;","torrent":{"xt":"urn:btih:fc3f64e0810fc638fcf0d8468938313cb07807b2","amp;dn":"Maze+Runner%3A+The+Scorch+Trials+%282015%29+CAMRip+%2AProper%2A+%5BEng%2B+Ru%5D+","amp;tr":["udp%3A%2F%2Ftracker.openbittorrent.com%3A80","udp%3A%2F%2Fopen.demonii.com%3A1337","udp%3A%2F%2Ftracker.coppersurfer.tk%3A6969","udp%3A%2F%2Fexodus.desync.com%3A6969"],"infoHash":"fc3f64e0810fc638fcf0d8468938313cb07807b2","infoHashBuffer":{"type":"Buffer","data":[252,63,100,224,129,15,198,56,252,240,216,70,137,56,49,60,176,120,7,178]},"announce":[],"urlList":[]}}